<?xml version="1.0" encoding="UTF-8" standalone="no"?>
<svg xmlns:xlink="http://www.w3.org/1999/xlink" height="219.45px" width="200.15px" xmlns="http://www.w3.org/2000/svg">
  <g transform="matrix(1.0, 0.0, 0.0, 1.0, -18.9, -20.2)">
    <path d="M139.55 230.0 Q136.3 222.15 129.5 220.3 123.5 217.85 116.1 220.3 113.85 216.4 110.05 215.65 L104.8 215.5 Q98.55 217.0 97.9 221.85 L96.8 225.35 92.15 230.0 85.9 230.15 Q82.75 224.5 76.25 223.95 L75.65 223.9 Q71.8 224.15 71.85 229.4 68.15 226.35 63.6 228.95 57.8 228.1 57.25 233.1 L48.35 233.45 Q42.25 218.05 31.3 221.85 28.45 223.4 27.95 225.75 L27.1 230.75 Q24.8 225.35 18.9 223.6 L19.7 20.2 218.05 20.3 219.05 232.35 Q215.85 230.6 213.75 233.95 L212.85 239.0 210.2 239.65 Q211.7 235.45 210.7 232.4 207.3 228.15 204.15 226.8 201.05 225.4 195.3 225.15 189.55 224.9 191.4 232.8 186.8 233.55 184.05 236.95 178.2 230.05 177.05 229.95 L175.75 229.75 Q171.65 229.25 168.05 231.25 L167.55 231.5 Q163.65 233.7 160.35 237.65 157.25 231.8 150.85 229.8 148.4 229.0 146.4 231.0 L146.3 231.2 Q145.1 232.85 146.15 235.1 L147.25 239.05 146.9 239.15 Q144.0 236.95 140.75 237.3 141.2 233.65 139.55 230.0" fill="#000000" fill-rule="evenodd" stroke="none"/>
  </g>
</svg>
